<mxfile host="app.diagrams.net" modified="2021-03-23T11:06:13.630Z" agent="5.0 (Windows NT 10.0; Win64; x64) AppleWebKit/537.36 (KHTML, like Gecko) Chrome/89.0.4389.90 Safari/537.36" etag="y-2tV0UxAf9X9QtF6onH" version="14.4.9" type="github">
  <diagram name="Page-1" id="e7e014a7-5840-1c2e-5031-d8a46d1fe8dd">
    <mxGraphModel dx="868" dy="1276" grid="1" gridSize="10" guides="1" tooltips="1" connect="1" arrows="1" fold="1" page="1" pageScale="1" pageWidth="1169" pageHeight="826" background="#ffffff" math="0" shadow="0">
      <root>
        <mxCell id="0" />
        <mxCell id="1" parent="0" />
        <mxCell id="6MmxygO9DQHTs_CDxbk4-5" style="edgeStyle=orthogonalEdgeStyle;rounded=0;orthogonalLoop=1;jettySize=auto;html=1;exitX=0.5;exitY=1;exitDx=0;exitDy=0;entryX=0.5;entryY=0;entryDx=0;entryDy=0;" parent="1" source="_qdsKKJTdr9DCj_0cPD0-41" edge="1">
          <mxGeometry relative="1" as="geometry">
            <mxPoint x="405" as="targetPoint" />
          </mxGeometry>
        </mxCell>
        <mxCell id="_qdsKKJTdr9DCj_0cPD0-41" value="" style="ellipse;whiteSpace=wrap;html=1;aspect=fixed;fillColor=#000000;" parent="1" vertex="1">
          <mxGeometry x="380" y="-80" width="50" height="50" as="geometry" />
        </mxCell>
        <mxCell id="peP9-VXa4n1asRKZW9pu-1" style="edgeStyle=orthogonalEdgeStyle;rounded=0;orthogonalLoop=1;jettySize=auto;html=1;exitX=0.5;exitY=1;exitDx=0;exitDy=0;" edge="1" parent="1" source="_qdsKKJTdr9DCj_0cPD0-43" target="_qdsKKJTdr9DCj_0cPD0-47">
          <mxGeometry relative="1" as="geometry" />
        </mxCell>
        <mxCell id="_qdsKKJTdr9DCj_0cPD0-43" value="Ввод a, b, c" style="rounded=1;whiteSpace=wrap;html=1;gradientColor=none;fillColor=#FFFFFF;arcSize=50;" parent="1" vertex="1">
          <mxGeometry x="350" width="110" height="40" as="geometry" />
        </mxCell>
        <mxCell id="_qdsKKJTdr9DCj_0cPD0-49" style="edgeStyle=orthogonalEdgeStyle;rounded=0;orthogonalLoop=1;jettySize=auto;html=1;exitX=1;exitY=0.5;exitDx=0;exitDy=0;entryX=0.5;entryY=0;entryDx=0;entryDy=0;" parent="1" source="_qdsKKJTdr9DCj_0cPD0-47" target="_qdsKKJTdr9DCj_0cPD0-48" edge="1">
          <mxGeometry relative="1" as="geometry" />
        </mxCell>
        <mxCell id="_qdsKKJTdr9DCj_0cPD0-53" style="edgeStyle=orthogonalEdgeStyle;rounded=0;orthogonalLoop=1;jettySize=auto;html=1;exitX=0.5;exitY=1;exitDx=0;exitDy=0;fontSize=16;" parent="1" source="_qdsKKJTdr9DCj_0cPD0-47" edge="1">
          <mxGeometry relative="1" as="geometry">
            <mxPoint x="405" y="171" as="targetPoint" />
          </mxGeometry>
        </mxCell>
        <mxCell id="_qdsKKJTdr9DCj_0cPD0-47" value="" style="rhombus;whiteSpace=wrap;html=1;fillColor=#FFFFFF;gradientColor=none;" parent="1" vertex="1">
          <mxGeometry x="380" y="80" width="50" height="43" as="geometry" />
        </mxCell>
        <mxCell id="_qdsKKJTdr9DCj_0cPD0-57" style="edgeStyle=orthogonalEdgeStyle;rounded=0;orthogonalLoop=1;jettySize=auto;html=1;exitX=0.5;exitY=1;exitDx=0;exitDy=0;fontSize=16;entryX=0.5;entryY=0;entryDx=0;entryDy=0;" parent="1" source="_qdsKKJTdr9DCj_0cPD0-48" edge="1" target="_qdsKKJTdr9DCj_0cPD0-58">
          <mxGeometry relative="1" as="geometry">
            <mxPoint x="630" y="260" as="targetPoint" />
          </mxGeometry>
        </mxCell>
        <mxCell id="_qdsKKJTdr9DCj_0cPD0-48" value="Вывод&lt;br&gt;illegal value of a" style="rounded=1;whiteSpace=wrap;html=1;gradientColor=none;fillColor=#FFFFFF;arcSize=50;" parent="1" vertex="1">
          <mxGeometry x="575" y="144" width="110" height="40" as="geometry" />
        </mxCell>
        <mxCell id="_qdsKKJTdr9DCj_0cPD0-51" value="[a = 0]" style="text;html=1;strokeColor=none;fillColor=none;align=center;verticalAlign=middle;whiteSpace=wrap;rounded=0;perimeterSpacing=0;fontSize=16;" parent="1" vertex="1">
          <mxGeometry x="437" y="80" width="50" height="20" as="geometry" />
        </mxCell>
        <mxCell id="_qdsKKJTdr9DCj_0cPD0-54" value="[else]" style="text;html=1;strokeColor=none;fillColor=none;align=center;verticalAlign=middle;whiteSpace=wrap;rounded=0;perimeterSpacing=0;fontSize=16;" parent="1" vertex="1">
          <mxGeometry x="401.5" y="123" width="50" height="20" as="geometry" />
        </mxCell>
        <mxCell id="_qdsKKJTdr9DCj_0cPD0-59" value="" style="group" parent="1" vertex="1" connectable="0">
          <mxGeometry x="600" y="210" width="60" height="60" as="geometry" />
        </mxCell>
        <mxCell id="_qdsKKJTdr9DCj_0cPD0-58" value="" style="ellipse;whiteSpace=wrap;html=1;gradientColor=none;fontSize=16;fillColor=#FFFFFF;" parent="_qdsKKJTdr9DCj_0cPD0-59" vertex="1">
          <mxGeometry width="60" height="60" as="geometry" />
        </mxCell>
        <mxCell id="_qdsKKJTdr9DCj_0cPD0-56" value="" style="ellipse;whiteSpace=wrap;html=1;aspect=fixed;fontSize=16;fillColor=#000000;" parent="_qdsKKJTdr9DCj_0cPD0-59" vertex="1">
          <mxGeometry x="6.25" y="7" width="47.5" height="47.5" as="geometry" />
        </mxCell>
        <mxCell id="peP9-VXa4n1asRKZW9pu-3" style="edgeStyle=orthogonalEdgeStyle;rounded=0;orthogonalLoop=1;jettySize=auto;html=1;exitX=0.5;exitY=1;exitDx=0;exitDy=0;entryX=0.5;entryY=0;entryDx=0;entryDy=0;" edge="1" parent="1" source="64BcI_9wWAsRSYKGbqmx-1" target="peP9-VXa4n1asRKZW9pu-2">
          <mxGeometry relative="1" as="geometry" />
        </mxCell>
        <mxCell id="64BcI_9wWAsRSYKGbqmx-1" value="D := b**2 - 4*a*c" style="rounded=1;whiteSpace=wrap;html=1;gradientColor=none;fillColor=#FFFFFF;arcSize=50;" parent="1" vertex="1">
          <mxGeometry x="350" y="170" width="110" height="40" as="geometry" />
        </mxCell>
        <mxCell id="peP9-VXa4n1asRKZW9pu-7" style="edgeStyle=orthogonalEdgeStyle;rounded=0;orthogonalLoop=1;jettySize=auto;html=1;exitX=1;exitY=0.5;exitDx=0;exitDy=0;entryX=0;entryY=0.5;entryDx=0;entryDy=0;" edge="1" parent="1" source="64BcI_9wWAsRSYKGbqmx-11" target="peP9-VXa4n1asRKZW9pu-6">
          <mxGeometry relative="1" as="geometry" />
        </mxCell>
        <mxCell id="peP9-VXa4n1asRKZW9pu-10" style="edgeStyle=orthogonalEdgeStyle;rounded=0;orthogonalLoop=1;jettySize=auto;html=1;exitX=0.5;exitY=1;exitDx=0;exitDy=0;" edge="1" parent="1" source="64BcI_9wWAsRSYKGbqmx-11">
          <mxGeometry relative="1" as="geometry">
            <mxPoint x="405" y="430" as="targetPoint" />
          </mxGeometry>
        </mxCell>
        <mxCell id="peP9-VXa4n1asRKZW9pu-11" style="edgeStyle=orthogonalEdgeStyle;rounded=0;orthogonalLoop=1;jettySize=auto;html=1;exitX=0;exitY=0.5;exitDx=0;exitDy=0;entryX=1;entryY=0.5;entryDx=0;entryDy=0;" edge="1" parent="1" source="64BcI_9wWAsRSYKGbqmx-11" target="peP9-VXa4n1asRKZW9pu-13">
          <mxGeometry relative="1" as="geometry">
            <mxPoint x="300" y="342" as="targetPoint" />
          </mxGeometry>
        </mxCell>
        <mxCell id="64BcI_9wWAsRSYKGbqmx-11" value="" style="rhombus;whiteSpace=wrap;html=1;fillColor=#FFFFFF;gradientColor=none;" parent="1" vertex="1">
          <mxGeometry x="380" y="320" width="50" height="43" as="geometry" />
        </mxCell>
        <mxCell id="64BcI_9wWAsRSYKGbqmx-23" value="" style="group" parent="1" vertex="1" connectable="0">
          <mxGeometry x="377" y="740" width="60" height="60" as="geometry" />
        </mxCell>
        <mxCell id="64BcI_9wWAsRSYKGbqmx-24" value="" style="ellipse;whiteSpace=wrap;html=1;gradientColor=none;fontSize=16;fillColor=#FFFFFF;" parent="64BcI_9wWAsRSYKGbqmx-23" vertex="1">
          <mxGeometry width="60" height="60" as="geometry" />
        </mxCell>
        <mxCell id="64BcI_9wWAsRSYKGbqmx-25" value="" style="ellipse;whiteSpace=wrap;html=1;aspect=fixed;fontSize=16;fillColor=#000000;" parent="64BcI_9wWAsRSYKGbqmx-23" vertex="1">
          <mxGeometry x="6.25" y="7" width="47.5" height="47.5" as="geometry" />
        </mxCell>
        <mxCell id="64BcI_9wWAsRSYKGbqmx-27" value="[else]" style="text;html=1;strokeColor=none;fillColor=none;align=center;verticalAlign=middle;whiteSpace=wrap;rounded=0;perimeterSpacing=0;fontSize=16;" parent="1" vertex="1">
          <mxGeometry x="401.5" y="380" width="50" height="20" as="geometry" />
        </mxCell>
        <mxCell id="peP9-VXa4n1asRKZW9pu-4" style="edgeStyle=orthogonalEdgeStyle;rounded=0;orthogonalLoop=1;jettySize=auto;html=1;exitX=0.5;exitY=1;exitDx=0;exitDy=0;entryX=0.5;entryY=0;entryDx=0;entryDy=0;" edge="1" parent="1" source="peP9-VXa4n1asRKZW9pu-2" target="64BcI_9wWAsRSYKGbqmx-11">
          <mxGeometry relative="1" as="geometry" />
        </mxCell>
        <mxCell id="peP9-VXa4n1asRKZW9pu-2" value="Вывод D" style="rounded=1;whiteSpace=wrap;html=1;gradientColor=none;fillColor=#FFFFFF;arcSize=50;" vertex="1" parent="1">
          <mxGeometry x="350" y="250" width="110" height="40" as="geometry" />
        </mxCell>
        <mxCell id="peP9-VXa4n1asRKZW9pu-5" value="[D &amp;lt; 0]" style="text;html=1;strokeColor=none;fillColor=none;align=center;verticalAlign=middle;whiteSpace=wrap;rounded=0;perimeterSpacing=0;fontSize=16;" vertex="1" parent="1">
          <mxGeometry x="455" y="319" width="74.5" height="20" as="geometry" />
        </mxCell>
        <mxCell id="peP9-VXa4n1asRKZW9pu-8" style="edgeStyle=orthogonalEdgeStyle;rounded=0;orthogonalLoop=1;jettySize=auto;html=1;exitX=0.5;exitY=0;exitDx=0;exitDy=0;entryX=0.5;entryY=1;entryDx=0;entryDy=0;" edge="1" parent="1" source="peP9-VXa4n1asRKZW9pu-6" target="_qdsKKJTdr9DCj_0cPD0-58">
          <mxGeometry relative="1" as="geometry" />
        </mxCell>
        <mxCell id="peP9-VXa4n1asRKZW9pu-6" value="Вывод &lt;br&gt;&quot;Корней нет&quot;" style="rounded=1;whiteSpace=wrap;html=1;gradientColor=none;fillColor=#FFFFFF;arcSize=50;" vertex="1" parent="1">
          <mxGeometry x="575" y="321.5" width="110" height="40" as="geometry" />
        </mxCell>
        <mxCell id="peP9-VXa4n1asRKZW9pu-12" value="[D = 0]" style="text;html=1;strokeColor=none;fillColor=none;align=center;verticalAlign=middle;whiteSpace=wrap;rounded=0;perimeterSpacing=0;fontSize=16;" vertex="1" parent="1">
          <mxGeometry x="302.5" y="318" width="74.5" height="20" as="geometry" />
        </mxCell>
        <mxCell id="peP9-VXa4n1asRKZW9pu-15" style="edgeStyle=orthogonalEdgeStyle;rounded=0;orthogonalLoop=1;jettySize=auto;html=1;exitX=0;exitY=0.5;exitDx=0;exitDy=0;entryX=1;entryY=0.5;entryDx=0;entryDy=0;" edge="1" parent="1" source="peP9-VXa4n1asRKZW9pu-13" target="peP9-VXa4n1asRKZW9pu-14">
          <mxGeometry relative="1" as="geometry" />
        </mxCell>
        <mxCell id="peP9-VXa4n1asRKZW9pu-13" value="y := -b / 2*a" style="rounded=1;whiteSpace=wrap;html=1;gradientColor=none;fillColor=#FFFFFF;arcSize=50;" vertex="1" parent="1">
          <mxGeometry x="190.5" y="321.5" width="110" height="40" as="geometry" />
        </mxCell>
        <mxCell id="peP9-VXa4n1asRKZW9pu-17" style="edgeStyle=orthogonalEdgeStyle;rounded=0;orthogonalLoop=1;jettySize=auto;html=1;exitX=0.5;exitY=1;exitDx=0;exitDy=0;" edge="1" parent="1" source="peP9-VXa4n1asRKZW9pu-14" target="peP9-VXa4n1asRKZW9pu-16">
          <mxGeometry relative="1" as="geometry" />
        </mxCell>
        <mxCell id="peP9-VXa4n1asRKZW9pu-14" value="Вывод y" style="rounded=1;whiteSpace=wrap;html=1;gradientColor=none;fillColor=#FFFFFF;arcSize=50;" vertex="1" parent="1">
          <mxGeometry x="46" y="321" width="110" height="40" as="geometry" />
        </mxCell>
        <mxCell id="peP9-VXa4n1asRKZW9pu-18" style="edgeStyle=orthogonalEdgeStyle;rounded=0;orthogonalLoop=1;jettySize=auto;html=1;exitX=0.5;exitY=1;exitDx=0;exitDy=0;" edge="1" parent="1" source="peP9-VXa4n1asRKZW9pu-16">
          <mxGeometry relative="1" as="geometry">
            <mxPoint x="101" y="480" as="targetPoint" />
          </mxGeometry>
        </mxCell>
        <mxCell id="peP9-VXa4n1asRKZW9pu-16" value="x1 := sqrt(y)&lt;br&gt;x2 := - sqrt(y)" style="rounded=1;whiteSpace=wrap;html=1;gradientColor=none;fillColor=#FFFFFF;arcSize=50;" vertex="1" parent="1">
          <mxGeometry x="46" y="400" width="110" height="40" as="geometry" />
        </mxCell>
        <mxCell id="peP9-VXa4n1asRKZW9pu-19" value="Вывод x1, x2" style="rounded=1;whiteSpace=wrap;html=1;gradientColor=none;fillColor=#FFFFFF;arcSize=50;" vertex="1" parent="1">
          <mxGeometry x="46" y="480" width="110" height="40" as="geometry" />
        </mxCell>
        <mxCell id="peP9-VXa4n1asRKZW9pu-20" value="" style="group" vertex="1" connectable="0" parent="1">
          <mxGeometry x="71" y="574" width="60" height="60" as="geometry" />
        </mxCell>
        <mxCell id="peP9-VXa4n1asRKZW9pu-21" value="" style="ellipse;whiteSpace=wrap;html=1;gradientColor=none;fontSize=16;fillColor=#FFFFFF;" vertex="1" parent="peP9-VXa4n1asRKZW9pu-20">
          <mxGeometry width="60" height="60" as="geometry" />
        </mxCell>
        <mxCell id="peP9-VXa4n1asRKZW9pu-22" value="" style="ellipse;whiteSpace=wrap;html=1;aspect=fixed;fontSize=16;fillColor=#000000;" vertex="1" parent="peP9-VXa4n1asRKZW9pu-20">
          <mxGeometry x="6.25" y="7" width="47.5" height="47.5" as="geometry" />
        </mxCell>
        <mxCell id="peP9-VXa4n1asRKZW9pu-23" style="edgeStyle=orthogonalEdgeStyle;rounded=0;orthogonalLoop=1;jettySize=auto;html=1;entryX=0.5;entryY=0;entryDx=0;entryDy=0;" edge="1" parent="1" source="peP9-VXa4n1asRKZW9pu-19" target="peP9-VXa4n1asRKZW9pu-21">
          <mxGeometry relative="1" as="geometry">
            <mxPoint x="101" y="570" as="targetPoint" />
            <mxPoint x="70" y="580" as="sourcePoint" />
          </mxGeometry>
        </mxCell>
        <mxCell id="peP9-VXa4n1asRKZW9pu-27" value="" style="edgeStyle=orthogonalEdgeStyle;rounded=0;orthogonalLoop=1;jettySize=auto;html=1;" edge="1" parent="1" source="peP9-VXa4n1asRKZW9pu-24" target="peP9-VXa4n1asRKZW9pu-26">
          <mxGeometry relative="1" as="geometry" />
        </mxCell>
        <mxCell id="peP9-VXa4n1asRKZW9pu-24" value="y1 := -b + D / 2 *a&lt;br&gt;y2 := -b - D / 2 * a" style="rounded=1;whiteSpace=wrap;html=1;gradientColor=none;fillColor=#FFFFFF;arcSize=50;" vertex="1" parent="1">
          <mxGeometry x="350" y="430" width="110" height="40" as="geometry" />
        </mxCell>
        <mxCell id="peP9-VXa4n1asRKZW9pu-29" value="" style="edgeStyle=orthogonalEdgeStyle;rounded=0;orthogonalLoop=1;jettySize=auto;html=1;" edge="1" parent="1" source="peP9-VXa4n1asRKZW9pu-26" target="peP9-VXa4n1asRKZW9pu-28">
          <mxGeometry relative="1" as="geometry" />
        </mxCell>
        <mxCell id="peP9-VXa4n1asRKZW9pu-26" value="Вывод y1, y2" style="rounded=1;whiteSpace=wrap;html=1;gradientColor=none;fillColor=#FFFFFF;arcSize=50;" vertex="1" parent="1">
          <mxGeometry x="350" y="510" width="110" height="40" as="geometry" />
        </mxCell>
        <mxCell id="peP9-VXa4n1asRKZW9pu-31" style="edgeStyle=orthogonalEdgeStyle;rounded=0;orthogonalLoop=1;jettySize=auto;html=1;exitX=0.5;exitY=1;exitDx=0;exitDy=0;entryX=0.5;entryY=0;entryDx=0;entryDy=0;" edge="1" parent="1" source="peP9-VXa4n1asRKZW9pu-28" target="peP9-VXa4n1asRKZW9pu-30">
          <mxGeometry relative="1" as="geometry" />
        </mxCell>
        <mxCell id="peP9-VXa4n1asRKZW9pu-28" value="x1 := sqrt(y1)&lt;br&gt;x2 := - sqrt(y1)&lt;br&gt;x3 := sqrt(y2)&lt;br&gt;x4 := - sqrt(y2)" style="rounded=1;whiteSpace=wrap;html=1;gradientColor=none;fillColor=#FFFFFF;arcSize=50;" vertex="1" parent="1">
          <mxGeometry x="340" y="584" width="130" height="56" as="geometry" />
        </mxCell>
        <mxCell id="peP9-VXa4n1asRKZW9pu-32" style="edgeStyle=orthogonalEdgeStyle;rounded=0;orthogonalLoop=1;jettySize=auto;html=1;exitX=0.5;exitY=1;exitDx=0;exitDy=0;entryX=0.5;entryY=0;entryDx=0;entryDy=0;" edge="1" parent="1" source="peP9-VXa4n1asRKZW9pu-30" target="64BcI_9wWAsRSYKGbqmx-24">
          <mxGeometry relative="1" as="geometry">
            <mxPoint x="400" y="770" as="targetPoint" />
          </mxGeometry>
        </mxCell>
        <mxCell id="peP9-VXa4n1asRKZW9pu-30" value="Вывод x1, x2, x3, x4" style="rounded=1;whiteSpace=wrap;html=1;gradientColor=none;fillColor=#FFFFFF;arcSize=50;" vertex="1" parent="1">
          <mxGeometry x="340" y="670" width="130" height="40" as="geometry" />
        </mxCell>
      </root>
    </mxGraphModel>
  </diagram>
</mxfile>
